<?xml version="1.0" encoding="UTF-8" standalone="no"?>
<!-- Created with Inkscape (http://www.inkscape.org/) -->

<svg
   xmlns:dc="http://purl.org/dc/elements/1.1/"
   xmlns:cc="http://creativecommons.org/ns#"
   xmlns:rdf="http://www.w3.org/1999/02/22-rdf-syntax-ns#"
   xmlns:svg="http://www.w3.org/2000/svg"
   xmlns="http://www.w3.org/2000/svg"
   xmlns:sodipodi="http://sodipodi.sourceforge.net/DTD/sodipodi-0.dtd"
   xmlns:inkscape="http://www.inkscape.org/namespaces/inkscape"
   width="3.5in"
   height="2in"
   viewBox="0 0 315 180"
   id="svg3336"
   version="1.1"
   inkscape:version="0.91 r13725"
   sodipodi:docname="pcb-card.svg"
   enable-background="new">
  <defs
     id="defs3338" />
  <sodipodi:namedview
     id="base"
     pagecolor="#ffffff"
     bordercolor="#666666"
     borderopacity="1.0"
     inkscape:pageopacity="0.0"
     inkscape:pageshadow="2"
     inkscape:zoom="1.793582"
     inkscape:cx="142.52276"
     inkscape:cy="101.15087"
     inkscape:document-units="px"
     inkscape:current-layer="layer3"
     showgrid="false"
     units="in"
     inkscape:window-width="1440"
     inkscape:window-height="823"
     inkscape:window-x="0"
     inkscape:window-y="1"
     inkscape:window-maximized="1" />
  <metadata
     id="metadata3341">
    <rdf:RDF>
      <cc:Work
         rdf:about="">
        <dc:format>image/svg+xml</dc:format>
        <dc:type
           rdf:resource="http://purl.org/dc/dcmitype/StillImage" />
        <dc:title></dc:title>
      </cc:Work>
    </rdf:RDF>
  </metadata>
  <g
     inkscape:label="Fiberglass"
     inkscape:groupmode="layer"
     id="layer1"
     transform="translate(0,-872.36212)"
     style="display:inline">
    <rect
       style="fill:#918a6f;fill-opacity:1;stroke:#000000;stroke-width:0;stroke-miterlimit:4;stroke-dasharray:none;stroke-opacity:1"
       id="rect4174"
       width="315"
       height="179.99998"
       x="5.0157064e-06"
       y="872.36212" />
  </g>
  <g
     inkscape:groupmode="layer"
     id="layer2"
     inkscape:label="Gold (copper)"
     style="display:inline">
    <rect
       style="fill:#ffbe21;fill-opacity:1;fill-rule:evenodd;stroke:#000000;stroke-width:0;stroke-linecap:butt;stroke-linejoin:miter;stroke-miterlimit:4;stroke-dasharray:none;stroke-opacity:1"
       id="rect3366"
       width="315"
       height="179.99998"
       x="5.00956e-06"
       y="4.999295e-06" />
  </g>
  <g
     inkscape:groupmode="layer"
     id="layer3"
     inkscape:label="White (mask)"
     style="display:inline">
    <path
       style="fill:#ffffff;fill-opacity:1;stroke:#000000;stroke-width:0;stroke-miterlimit:4;stroke-dasharray:none;stroke-opacity:1"
       clip-path="none"
       d="M 0 0 L 0 66.554688 C 0.3542255 66.206446 0.71617802 65.863264 1.1054688 65.525391 C 3.3459455 63.580845 5.8513773 62.129331 9.1582031 60.859375 C 10.274838 60.430546 14.037094 59.463139 14.996094 59.359375 C 18.103605 59.023071 20.807689 59.169349 23.919922 59.839844 C 25.52715 60.186058 26.54332 60.472484 28.169922 61.037109 C 30.83981 61.963884 33.2597 63.053822 36.171875 64.644531 C 37.701769 65.480222 38.182512 65.860435 38.652344 66.599609 C 39.517653 67.960964 39.641037 69.545737 38.990234 70.929688 C 38.72315 71.497652 34.066653 79.652429 33.769531 80.072266 C 33.387514 80.61207 33.056602 80.944205 32.597656 81.251953 C 31.440386 82.02796 30.003413 82.228806 28.742188 81.791016 C 28.495891 81.705486 27.873352 81.41309 27.357422 81.140625 C 24.476782 79.619352 21.736441 78.648008 19.421875 78.326172 C 16.99122 77.988198 14.894844 78.446977 13.501953 79.621094 C 12.737624 80.265362 12.109259 81.271112 11.925781 82.140625 C 11.783175 82.816434 11.798511 83.190149 12.007812 84 C 12.171712 84.634159 12.217587 84.748937 12.443359 85.091797 C 12.746048 85.551469 12.958571 85.778549 13.476562 86.191406 C 14.87575 87.306607 18.78358 88.699005 24.355469 90.070312 C 27.978461 90.96198 29.138218 91.288634 31.167969 91.988281 C 34.214234 93.038311 36.496496 94.074556 38.894531 95.496094 C 40.587481 96.499648 41.78841 97.368421 43.039062 98.494141 C 45.611047 100.80916 47.366622 103.3828 48.835938 106.99023 C 49.148198 107.75687 50.08658 111.22109 50.273438 112.29688 C 50.646692 114.4458 50.744406 116.54726 50.574219 118.75781 C 50.40587 120.9444 50.060679 122.60961 49.337891 124.7168 C 48.701669 126.57158 48.097405 127.87258 47.048828 129.64258 C 46.001972 131.40966 45.152853 132.56179 43.828125 134.01758 C 42.34498 135.64748 40.958099 136.83718 39.216797 137.97266 C 37.364904 139.18021 35.852737 139.95155 33.822266 140.7207 C 32.956086 141.04882 29.547378 141.96997 28.484375 142.16406 C 28.116895 142.23116 27.403036 142.33956 26.896484 142.4043 C 22.208867 143.00332 17.721167 142.53711 13.333984 140.99414 C 10.152085 139.87506 7.118752 138.23616 4.1289062 136.02148 C 3.2757002 135.38947 2.9895528 135.11724 2.6621094 134.62891 C 1.8632496 133.43758 1.6845843 132.0363 2.15625 130.67969 C 2.3707569 130.06272 6.9308332 121.25261 7.3222656 120.69922 C 8.2590791 119.37479 9.8028421 118.68355 11.453125 118.84766 C 12.275537 118.92946 12.869791 119.19309 14.074219 120.00781 C 17.975326 122.64673 21.573214 123.85712 24.556641 123.53711 C 25.153217 123.47321 26.369719 123.16359 26.919922 122.93555 C 28.54727 122.26101 29.782646 121.18268 30.703125 119.62891 C 31.71282 117.92456 31.916865 116.30745 31.333984 114.63867 C 30.864774 113.29534 30.249163 112.56256 28.933594 111.78125 C 26.902667 110.57507 23.610933 109.52117 17.505859 108.12109 C 14.678401 107.4727 13.285171 107.07671 11.066406 106.29492 C 7.4221701 105.01088 4.1163126 103.26028 1.6855469 101.32812 C 1.1627072 100.91255 0.57229012 100.36842 0 99.787109 L 0 180 L 315 180 L 315 63.960938 C 314.6601 64.281211 314.31567 64.594255 313.9668 64.898438 C 312.21702 66.424063 311.25863 67.138493 309.31641 68.373047 C 306.75125 70.003563 304.02378 71.31492 301.02148 72.357422 C 299.94016 72.732899 296.61788 73.618028 295.41602 73.851562 C 293.00252 74.320543 290.72262 74.542774 288.26562 74.548828 C 287.25543 74.551328 284.70443 74.387554 283.6582 74.253906 C 281.03728 73.919057 278.54404 73.318858 275.84766 72.373047 C 275.00249 72.076579 274.29136 71.832176 274.26758 71.828125 C 274.24388 71.824425 275.6935 77.583221 277.48828 84.626953 C 280.49681 96.434202 280.75108 97.458349 280.73828 97.746094 C 280.69668 98.663804 280.51263 99.339139 280.12109 100 C 279.852 100.45425 279.34598 101.01602 278.97656 101.27344 C 278.23886 101.7875 278.67519 101.65499 272.42578 103.26562 C 267.82807 104.4506 266.60566 104.75146 266.31836 104.76562 C 264.4552 104.85743 262.79388 103.82634 262.06836 102.13086 C 261.9462 101.84543 258.96842 90.257859 249.90039 54.779297 C 238.71328 11.009849 237.89527 7.7849487 237.9082 7.4941406 C 237.9357 6.8738079 237.99486 6.5189517 238.14648 6.0722656 C 238.50908 5.0059356 239.18081 4.2138344 240.23242 3.609375 C 240.49754 3.4569766 241.07295 3.3007759 246.35352 1.9492188 C 251.63408 0.597663 252.2138 0.45660527 252.51953 0.46289062 C 253.73218 0.48781326 254.70095 0.86203653 255.53125 1.6230469 C 256.15365 2.1934846 256.49098 2.7566222 256.77539 3.7070312 L 256.97852 4.3886719 L 257.83594 3.4296875 C 258.987 2.1407889 260.13019 1.0270617 261.32617 0 L 0 0 z M 312.17188 0 C 313.15776 0.76567513 314.10325 1.5618055 315 2.3945312 L 315 0 L 312.17188 0 z M 224.42773 7.6542969 C 225.6404 7.6792239 226.60916 8.0514934 227.43945 8.8125 C 227.80182 9.1446344 228.04262 9.4555495 228.33984 9.9726562 C 228.49611 10.244518 229.14327 12.749054 237.46484 45.261719 C 245.78643 77.774387 246.42246 80.284142 246.41602 80.597656 C 246.39092 81.810329 246.01882 82.779074 245.25781 83.609375 C 244.92567 83.971746 244.61475 84.212531 244.09766 84.509766 C 243.83261 84.662124 243.26086 84.817238 238.0293 86.15625 C 232.79776 87.495249 232.22169 87.633244 231.91602 87.626953 C 230.70335 87.602003 229.73462 87.229767 228.9043 86.46875 C 228.2944 85.909749 227.94934 85.337974 227.67383 84.431641 L 227.48047 83.798828 L 226.75977 84.615234 C 224.15139 87.569201 221.65654 89.719117 218.50391 91.728516 C 216.26811 93.153534 214.03459 94.262415 211.45508 95.228516 C 210.61949 95.541469 210.06199 95.705917 207.99414 96.25 C 206.63915 96.606546 205.20704 96.959257 204.81055 97.033203 C 202.21116 97.51819 199.1333 97.768721 196.63086 97.699219 C 190.58368 97.531263 185.20515 96.111811 179.42773 93.160156 C 178.5041 92.688294 176.34183 91.418037 175.375 90.779297 C 167.00414 85.249014 161.29917 77.714054 158.33984 68.283203 C 157.93798 67.002522 157.04896 63.398637 156.86719 62.310547 C 155.74595 55.598777 156.13736 49.235615 158.04102 43.210938 C 159.46181 38.714415 161.61656 34.446013 164.45312 30.511719 C 165.58182 28.946249 167.28977 26.936781 168.6582 25.5625 C 171.43487 22.774021 174.94054 20.243652 178.58398 18.398438 C 181.74609 16.796997 185.36736 15.53267 189.11719 14.720703 C 191.78129 14.143824 194.17603 13.870926 196.83398 13.845703 C 198.09168 13.833753 200.89258 14.025634 202.1582 14.208984 C 204.54657 14.555002 207.46615 15.317394 209.71289 16.183594 L 210.21094 16.375 L 210.06641 15.669922 C 209.86451 14.677688 209.89035 14.029997 210.16016 13.236328 C 210.52276 12.169998 211.19253 11.375944 212.24414 10.771484 C 212.50919 10.619125 213.0829 10.46401 218.31445 9.125 C 223.54601 7.7859911 224.12206 7.6480131 224.42773 7.6542969 z M 286.51562 10.214844 C 284.60028 10.219744 283.24226 10.386975 281.19922 10.867188 C 276.88469 11.881327 273.45898 13.739727 270.63672 16.599609 C 268.22626 19.04219 266.18667 22.496324 265.17188 25.853516 C 263.99647 29.742066 263.92057 33.601892 264.93164 38.064453 C 265.67092 41.327337 267.08058 44.503528 268.87891 46.957031 C 271.14491 50.048621 274.30531 52.55461 278.08594 54.257812 C 281.92481 55.987274 286.02348 56.522701 290.13477 55.833984 C 290.51837 55.769754 290.916 55.703759 291.01953 55.6875 C 291.46943 55.61684 293.36588 55.118088 293.92969 54.921875 C 296.65038 53.975042 298.59794 52.884395 300.63281 51.169922 C 304.00215 48.331116 306.82122 43.880305 308.05273 39.449219 C 309.00372 36.027441 309.08194 32.750303 308.31055 28.791016 C 308.06477 27.529553 307.61982 26.037602 307.06641 24.623047 C 305.46173 20.521296 302.97805 17.292748 299.40625 14.666016 C 295.44375 11.751956 290.96091 10.20346 286.51562 10.214844 z M 146.92383 27.490234 C 148.13652 27.515154 149.10523 27.889384 149.93555 28.650391 C 150.50787 29.174971 150.8784 29.763661 151.13281 30.556641 C 151.33247 31.178902 151.3882 31.737279 151.32031 32.425781 C 151.21173 33.527078 140.09373 111.11742 140 111.42773 C 139.61592 112.69936 138.73388 113.70682 137.52344 114.25586 C 137.05874 114.46663 133.93111 115.25153 133.4375 115.28125 C 132.14593 115.35905 130.97702 114.92565 130.0625 114.0293 C 129.92949 113.89895 127.53871 110.73945 124.75 107.00781 C 121.96127 103.27618 116.08035 95.403325 111.67969 89.513672 C 107.27904 83.624001 103.59374 78.693364 103.49023 78.556641 L 103.30078 78.308594 L 103.09766 79.720703 C 102.98597 80.497179 101.5763 90.301182 99.964844 101.50781 C 98.353422 112.71445 97.009276 121.99509 96.978516 122.13281 C 96.749355 123.15833 96.047479 124.2536 95.273438 124.79297 C 94.599574 125.26253 94.583915 125.26875 92.582031 125.79492 C 91.541259 126.06847 90.569842 126.29922 90.417969 126.30859 C 90.057763 126.33169 89.465663 126.29262 89.167969 126.22852 C 88.271652 126.03403 87.323498 125.47131 86.705078 124.76758 C 86.488022 124.52061 39.698143 61.278479 39.423828 60.861328 C 38.687479 59.741542 38.501807 58.315081 38.927734 57.0625 C 39.290332 55.996173 39.962085 55.202117 41.013672 54.597656 C 41.279048 54.445116 41.866207 54.286097 47.318359 52.890625 C 53.861495 51.215918 53.443056 51.305871 54.333984 51.402344 C 55.269014 51.503606 56.413523 52.127382 57.099609 52.908203 C 57.22062 53.045906 80.501684 85.279506 82.636719 88.265625 L 83.001953 88.777344 L 86.138672 66.726562 C 87.863812 54.598948 89.322727 44.51785 89.380859 44.324219 C 89.77038 43.027007 90.615599 42.068137 91.855469 41.517578 C 92.384013 41.282886 95.672816 40.498369 96.070312 40.511719 C 97.511516 40.560139 98.660582 41.106978 99.513672 42.152344 C 99.716634 42.401065 107.4824 52.83819 121.94531 72.296875 C 124.21736 75.353758 126.08852 77.851131 126.10352 77.847656 C 126.11862 77.844356 127.40258 68.068072 128.95703 56.123047 C 130.51143 44.178031 131.81837 34.217916 131.85938 33.988281 C 132.10987 32.584128 132.89045 31.487945 134.16406 30.755859 C 134.42949 30.60328 135.0203 30.445129 140.52148 29.037109 C 146.02267 27.62909 146.61772 27.483941 146.92383 27.490234 z M 197.38477 32.839844 C 195.66883 32.892314 194.47816 33.076017 192.38281 33.611328 C 190.11334 34.191136 188.92638 34.643436 187.17969 35.589844 C 183.31487 37.683935 180.31483 40.965861 178.14258 45.478516 C 176.36032 49.180998 175.58634 53.23246 175.91602 57.126953 C 176.06385 58.873526 176.44111 60.862748 176.89844 62.306641 C 177.90347 65.479843 178.9916 67.578891 180.86914 69.958984 C 184.14857 74.116185 189.78547 77.54327 194.78711 78.423828 C 197.28675 78.863887 199.43122 78.862442 202.14258 78.416016 C 202.9324 78.285958 205.3877 77.610135 206.19336 77.300781 C 210.15998 75.77767 213.1404 73.534706 215.66992 70.167969 C 218.94191 65.812987 220.49768 60.971892 220.29492 55.783203 C 220.17223 52.645175 219.37833 49.278886 218.02344 46.154297 C 216.37344 42.34909 213.67808 39.100975 210.20898 36.740234 C 206.18707 34.003321 201.90734 32.701553 197.38477 32.839844 z M 124.57031 123.41602 C 125.31905 123.41602 125.92969 123.84321 125.92969 124.42969 C 125.92969 125.01617 125.31905 125.44141 124.57031 125.44141 C 123.82157 125.44141 123.21289 125.01617 123.21289 124.42969 C 123.21289 123.84321 123.82157 123.41602 124.57031 123.41602 z M 167.00977 123.41602 C 167.7585 123.41602 168.36914 123.84321 168.36914 124.42969 C 168.36914 125.01617 167.7585 125.44141 167.00977 125.44141 C 166.26103 125.44141 165.65234 125.01617 165.65234 124.42969 C 165.65234 123.84321 166.26103 123.41602 167.00977 123.41602 z M 178.66797 124.02344 C 181.86833 124.02344 184.04688 125.58567 184.04688 127.91602 C 184.04688 129.53013 183.01308 130.52734 181.33008 130.52734 C 180.44882 130.52734 179.83899 130.2574 179.62695 129.76953 L 179.49609 129.76953 C 179.23105 130.28854 178.73388 130.54297 177.97852 130.54297 C 176.60031 130.54297 175.69141 129.67637 175.69141 128.36328 C 175.69141 127.10209 176.55363 126.26172 177.8457 126.26172 C 178.56794 126.26172 179.12363 126.52575 179.38867 126.99805 L 179.52148 126.99805 L 179.52148 126.39062 L 181.20508 126.39062 L 181.20508 128.89844 C 181.20508 129.27212 181.39603 129.49023 181.7207 129.49023 C 182.23091 129.49023 182.55078 128.94878 182.55078 128.08203 C 182.55078 126.19284 181.04671 125.02148 178.66797 125.02148 C 176.13683 125.02148 174.43359 126.37553 174.43359 128.37891 C 174.43359 130.39785 176.16281 131.64844 178.95898 131.64844 C 179.48907 131.64844 180.03156 131.60067 180.34961 131.5332 L 180.34961 132.54102 C 179.90567 132.62406 179.34327 132.66992 178.77344 132.66992 C 175.29478 132.66992 172.93555 130.92651 172.93555 128.35742 C 172.93555 125.79871 175.28208 124.02344 178.66797 124.02344 z M 146.17578 125.63867 C 148.32923 125.63867 149.62695 126.39573 149.62695 127.66211 L 147.16211 127.66211 C 147.15548 127.27804 146.76389 127.03516 146.1543 127.03516 C 145.64409 127.03516 145.3125 127.20009 145.3125 127.44922 C 145.3125 127.63606 145.5585 127.77109 146.04883 127.84375 L 147.71289 128.10352 C 149.19049 128.33188 149.8457 128.82539 149.8457 129.71289 C 149.8457 130.97408 148.40108 131.76172 146.23438 131.76172 C 143.92852 131.76172 142.63573 130.96766 142.54297 129.73242 L 145.16797 129.73242 C 145.2276 130.12687 145.63811 130.36719 146.26758 130.36719 C 146.82416 130.36719 147.15625 130.21592 147.15625 129.9668 C 147.15625 129.77476 146.95628 129.66574 146.43945 129.58789 L 145.00781 129.36523 C 143.51033 129.13168 142.70898 128.50849 142.70898 127.58984 C 142.70898 126.38055 144.02233 125.63867 146.17578 125.63867 z M 157.58008 125.63867 C 159.73353 125.63867 161.03125 126.39573 161.03125 127.66211 L 158.56641 127.66211 C 158.55978 127.27804 158.17014 127.03516 157.56055 127.03516 C 157.05034 127.03516 156.71875 127.20009 156.71875 127.44922 C 156.71875 127.63606 156.9628 127.77109 157.45312 127.84375 L 159.11719 128.10352 C 160.59479 128.33188 161.25 128.82539 161.25 129.71289 C 161.25 130.97408 159.80538 131.76172 157.63867 131.76172 C 155.33282 131.76172 154.04198 130.96766 153.94922 129.73242 L 156.57227 129.73242 C 156.6319 130.12687 157.04239 130.36719 157.67188 130.36719 C 158.22846 130.36719 158.56055 130.21592 158.56055 129.9668 C 158.56055 129.77476 158.36253 129.66574 157.8457 129.58789 L 156.41406 129.36523 C 154.91658 129.13168 154.11523 128.50849 154.11523 127.58984 C 154.11523 126.38055 155.42663 125.63867 157.58008 125.63867 z M 192.08594 125.63867 C 194.23939 125.63867 195.53906 126.39573 195.53906 127.66211 L 193.07422 127.66211 C 193.06759 127.27804 192.676 127.03516 192.06641 127.03516 C 191.5562 127.03516 191.22461 127.20009 191.22461 127.44922 C 191.22461 127.63606 191.47061 127.77109 191.96094 127.84375 L 193.62305 128.10352 C 195.10065 128.33188 195.75781 128.82539 195.75781 129.71289 C 195.75781 130.97408 194.31319 131.76172 192.14648 131.76172 C 189.84063 131.76172 188.54784 130.96766 188.45508 129.73242 L 191.08008 129.73242 C 191.13971 130.12687 191.55022 130.36719 192.17969 130.36719 C 192.73627 130.36719 193.06641 130.21592 193.06641 129.9668 C 193.06641 129.77476 192.86839 129.66574 192.35156 129.58789 L 190.91992 129.36523 C 189.42244 129.13168 188.62109 128.50849 188.62109 127.58984 C 188.62109 126.38055 189.93248 125.63867 192.08594 125.63867 z M 219.23633 125.63867 C 221.29039 125.63867 222.66211 126.44361 222.66211 127.62695 L 222.66211 131.61719 L 220.01172 131.61719 L 220.01172 130.82812 L 219.95898 130.82812 C 219.56805 131.39903 218.66684 131.70117 217.79883 131.70117 C 216.43387 131.70117 215.28711 130.97351 215.28711 129.91992 C 215.28711 128.80405 216.38134 128.19694 218.36914 128.10352 L 220.01172 128.02539 L 220.01172 127.73047 C 220.01172 127.33083 219.62655 127.11133 219.08984 127.11133 C 218.51338 127.11133 218.14209 127.36108 218.0957 127.66211 L 215.67188 127.66211 C 215.73813 126.42687 217.08288 125.63867 219.23633 125.63867 z M 250.90039 125.63867 C 253.05384 125.63867 254.47196 126.61943 254.51172 128.18164 L 252.03906 128.18164 C 251.97943 127.58997 251.55686 127.22656 250.94727 127.22656 C 250.19853 127.22656 249.78711 127.74553 249.78711 128.69531 C 249.78711 129.66067 250.1919 130.17383 250.94727 130.17383 C 251.57674 130.17383 251.98605 129.83715 252.03906 129.25586 L 254.51172 129.25586 C 254.47859 130.82326 253.10727 131.76172 250.91406 131.76172 C 248.50882 131.76172 247.03711 130.61564 247.03711 128.69531 C 247.03711 126.79574 248.51503 125.63867 250.90039 125.63867 z M 262.66211 125.63867 C 265.0541 125.63867 266.56641 126.76979 266.56641 128.69531 C 266.56641 130.66754 265.08723 131.76172 262.66211 131.76172 C 260.24362 131.76172 258.75977 130.66235 258.75977 128.69531 C 258.75977 126.78017 260.28337 125.63867 262.66211 125.63867 z M 275.88281 125.66992 C 277.01586 125.66992 277.7715 126.13047 277.95703 126.94531 L 278.00977 126.94531 C 278.26155 126.17718 279.17045 125.66992 280.29688 125.66992 C 281.74797 125.66992 282.74805 126.48334 282.74805 127.67188 L 282.74805 131.61719 L 280.03125 131.61719 L 280.03125 128.22266 C 280.03125 127.66213 279.71973 127.37695 279.10352 127.37695 C 278.53368 127.37695 278.18945 127.69846 278.18945 128.22266 L 278.18945 131.61719 L 275.61133 131.61719 L 275.61133 128.22266 C 275.61133 127.66732 275.29437 127.37695 274.69141 127.37695 C 274.12157 127.37695 273.76953 127.70365 273.76953 128.22266 L 273.76953 131.61719 L 271.05273 131.61719 L 271.05273 125.7832 L 273.70312 125.7832 L 273.70312 126.95703 L 273.75586 126.95703 C 274.03415 126.17333 274.86903 125.66992 275.88281 125.66992 z M 232.30469 125.70117 C 234.18647 125.70117 235.23242 126.77565 235.23242 128.70117 C 235.23242 130.6215 234.19317 131.70117 232.33789 131.70117 C 231.2446 131.70117 230.42854 131.28928 230.08398 130.60938 L 230.03125 130.60938 L 230.03125 133.48633 L 227.31445 133.48633 L 227.31445 125.7832 L 230.03125 125.7832 L 230.03125 126.83203 L 230.08398 126.83203 C 230.44179 126.12099 231.2379 125.70117 232.30469 125.70117 z M 123.21289 125.7832 L 125.92969 125.7832 L 125.92969 131.7168 C 125.92969 132.90014 124.82982 133.58984 122.94141 133.58984 C 122.66974 133.58984 122.27231 133.57416 122.11328 133.55859 L 122.11328 132.07422 C 122.19279 132.0846 122.31119 132.08984 122.42383 132.08984 C 122.97379 132.08984 123.21289 131.95002 123.21289 131.62305 L 123.21289 125.7832 z M 130.58203 125.7832 L 133.29883 125.7832 L 133.29883 129.04883 C 133.29883 129.67683 133.72998 130.01367 134.39258 130.01367 C 135.02868 130.01367 135.44531 129.63012 135.44531 129.04883 L 135.44531 125.7832 L 138.16211 125.7832 L 138.16211 131.61719 L 135.51172 131.61719 L 135.51172 130.47461 L 135.45898 130.47461 C 135.16081 131.2635 134.45887 131.73047 133.3457 131.73047 C 131.74883 131.73047 130.58203 130.91114 130.58203 129.52539 L 130.58203 125.7832 z M 165.65234 125.7832 L 168.36914 125.7832 L 168.36914 131.61719 L 165.65234 131.61719 L 165.65234 125.7832 z M 199.64062 125.7832 L 202.39062 125.7832 L 203.19922 129.74805 L 203.25195 129.74805 L 204.25391 125.7832 L 206.84375 125.7832 L 207.86523 129.74805 L 207.91797 129.74805 L 208.72656 125.7832 L 211.41016 125.7832 L 209.52734 131.61719 L 206.57812 131.61719 L 205.52539 127.83398 L 205.47266 127.83398 L 204.43164 131.61719 L 201.53711 131.61719 L 199.64062 125.7832 z M 262.66211 127.16406 C 261.95975 127.16406 261.51758 127.73582 261.51758 128.70117 C 261.51758 129.69248 261.9465 130.23633 262.66211 130.23633 C 263.37109 130.23633 263.80859 129.69248 263.80859 128.70117 C 263.80859 127.73582 263.36447 127.16406 262.66211 127.16406 z M 231.23828 127.3457 C 230.49617 127.3457 230.0242 127.87466 230.01758 128.70508 C 230.0242 129.54068 230.48954 130.05469 231.23828 130.05469 C 231.98039 130.05469 232.45117 129.53159 232.45117 128.70117 C 232.45117 127.87595 231.97377 127.3457 231.23828 127.3457 z M 178.46875 127.43359 C 177.95192 127.43359 177.64062 127.79706 177.64062 128.4043 C 177.64063 129.00635 177.9453 129.36523 178.46875 129.36523 C 178.98558 129.36523 179.28906 129.00635 179.28906 128.4043 C 179.28906 127.79706 178.97895 127.43359 178.46875 127.43359 z M 220.01172 129.16797 L 218.8125 129.23438 C 218.26917 129.26552 217.96484 129.46393 217.96484 129.75977 C 217.96484 130.08155 218.30111 130.27344 218.80469 130.27344 C 219.43416 130.27344 220.01172 129.99194 220.01172 129.55078 L 220.01172 129.16797 z M 241.24414 129.53125 C 242.00613 129.53125 242.62305 130.01252 242.62305 130.60938 C 242.62305 131.20623 242.00613 131.68945 241.24414 131.68945 C 240.48215 131.68945 239.86719 131.20623 239.86719 130.60938 C 239.86719 130.01252 240.48215 129.53125 241.24414 129.53125 z M 196.5332 136.34766 C 199.09747 136.34766 200.74023 137.79001 200.74023 140.28125 C 200.74023 142.75173 199.11735 144.25781 196.5332 144.25781 C 193.94906 144.25781 192.31836 142.76278 192.31836 140.28711 C 192.31836 137.79587 193.96894 136.34766 196.5332 136.34766 z M 209.58008 136.34766 C 212.14434 136.34766 213.78906 137.79001 213.78906 140.28125 C 213.78906 142.75173 212.16422 144.25781 209.58008 144.25781 C 206.99593 144.25781 205.36719 142.76278 205.36719 140.28711 C 205.36719 137.79587 207.01581 136.34766 209.58008 136.34766 z M 138.71289 136.35352 C 140.97236 136.35352 142.40234 137.15159 142.40234 138.41797 C 142.40234 139.32104 141.56113 139.97583 140.4082 140.13672 L 140.4082 140.17773 C 141.81292 140.29711 142.73438 140.9463 142.73438 141.96875 C 142.73438 143.37007 141.11784 144.25781 138.58008 144.25781 C 136.26097 144.25781 134.70995 143.27198 134.61719 141.74609 L 137.29492 141.74609 C 137.3148 142.24434 137.81705 142.55078 138.63867 142.55078 C 139.38078 142.55078 139.87891 142.22877 139.87891 141.74609 C 139.87891 141.25823 139.4084 140.9668 138.61328 140.9668 L 137.46094 140.9668 L 137.46094 139.49414 L 138.62695 139.49414 C 139.36244 139.49414 139.81836 139.19819 139.81836 138.7207 C 139.81836 138.24841 139.36237 137.95703 138.59375 137.95703 C 137.83838 137.95703 137.32812 138.31955 137.32812 138.84375 L 134.79688 138.84375 C 134.8035 137.34382 136.36066 136.35352 138.71289 136.35352 z M 164.26562 136.35352 C 166.58473 136.35352 168.16211 137.18831 168.16211 138.3457 C 168.16211 139.20207 167.30052 139.90875 166.12109 140.06445 L 166.12109 140.10547 C 167.55231 140.22484 168.55273 140.98218 168.55273 142.02539 C 168.55273 143.36443 166.83652 144.25781 164.26562 144.25781 C 161.64835 144.25781 159.98438 143.36572 159.98438 142.02148 C 159.98438 140.97828 160.99261 140.22484 162.42383 140.10547 L 162.42383 140.06445 C 161.23115 139.90875 160.36914 139.20854 160.36914 138.3418 C 160.36914 137.1896 161.94652 136.35352 164.26562 136.35352 z M 241.90039 136.35352 C 244.21949 136.35352 245.79688 137.18831 245.79688 138.3457 C 245.79687 139.20207 244.93529 139.90875 243.75586 140.06445 L 243.75586 140.10547 C 245.18708 140.22484 246.1875 140.98218 246.1875 142.02539 C 246.1875 143.36443 244.47128 144.25781 241.90039 144.25781 C 239.28312 144.25781 237.62109 143.36572 237.62109 142.02148 C 237.62109 140.97828 238.62738 140.22484 240.05859 140.10547 L 240.05859 140.06445 C 238.86591 139.90875 238.00391 139.20854 238.00391 138.3418 C 238.00391 137.1896 239.58129 136.35352 241.90039 136.35352 z M 255.08203 136.35352 C 257.40113 136.35352 258.97656 137.18831 258.97656 138.3457 C 258.97656 139.20207 258.11693 139.90875 256.9375 140.06445 L 256.9375 140.10547 C 258.36872 140.22484 259.36914 140.98218 259.36914 142.02539 C 259.36914 143.36443 257.65292 144.25781 255.08203 144.25781 C 252.46476 144.25781 250.80078 143.36572 250.80078 142.02148 C 250.80078 140.97828 251.80706 140.22484 253.23828 140.10547 L 253.23828 140.06445 C 252.0456 139.90875 251.18555 139.20854 251.18555 138.3418 C 251.18555 137.1896 252.76293 136.35352 255.08203 136.35352 z M 298.61328 136.35352 C 300.93238 136.35352 302.35742 137.27106 302.35742 138.63086 C 302.35742 139.6585 301.25825 140.43809 300.74805 140.79102 L 298.50195 142.34766 L 298.50195 142.38867 L 302.4707 142.38867 L 302.4707 144.05078 L 294.87695 144.05078 L 294.87695 142.58594 L 298.7207 139.92383 C 299.36343 139.47229 299.6543 139.11443 299.6543 138.69922 C 299.6543 138.29439 299.23591 137.97852 298.51367 137.97852 C 297.78481 137.97852 297.26953 138.36129 297.26953 138.90625 L 297.26953 138.95312 L 294.71094 138.95312 L 294.71094 138.91211 C 294.71094 137.38103 296.2478 136.35352 298.61328 136.35352 z M 148.17578 136.56055 L 154.86133 136.56055 L 154.86133 138.2207 L 150.33594 138.2207 L 150.18945 139.88281 L 150.24414 139.88281 C 150.58869 139.32747 151.32376 138.96875 152.35742 138.96875 C 154.17295 138.96875 155.47852 140.02272 155.47852 141.48633 C 155.47852 143.15235 153.88808 144.25781 151.49609 144.25781 C 149.22337 144.25781 147.61286 143.24496 147.59961 141.8125 L 150.12305 141.8125 C 150.23569 142.27442 150.80664 142.59766 151.51562 142.59766 C 152.31076 142.59766 152.84766 142.16187 152.84766 141.53906 C 152.84766 140.88511 152.31737 140.44336 151.51562 140.44336 C 150.97229 140.44336 150.48923 140.64574 150.21094 140.98828 L 147.75195 140.98828 L 148.17578 136.56055 z M 182.78125 136.56055 L 186.66406 136.56055 L 186.66406 141.25195 L 187.80469 141.25195 L 187.80469 142.93945 L 186.66406 142.93945 L 186.66406 144.05078 L 184.01367 144.05078 L 184.01367 142.93945 L 179.31055 142.93945 L 179.31055 141.11719 C 180.1653 139.80929 181.11812 138.54835 182.78125 136.56055 z M 228.03125 136.56055 L 231.91406 136.56055 L 231.91406 141.25195 L 233.05273 141.25195 L 233.05273 142.93945 L 231.91406 142.93945 L 231.91406 144.05078 L 229.26367 144.05078 L 229.26367 142.93945 L 224.55859 142.93945 L 224.55859 141.11719 C 225.41335 139.80929 226.36812 138.54835 228.03125 136.56055 z M 273.59766 136.56055 L 277.48047 136.56055 L 277.48047 141.25195 L 278.61914 141.25195 L 278.61914 142.93945 L 277.48047 142.93945 L 277.48047 144.05078 L 274.83008 144.05078 L 274.83008 142.93945 L 270.125 142.93945 L 270.125 141.11719 C 270.97976 139.80929 271.93453 138.54835 273.59766 136.56055 z M 282.88867 136.56055 L 290.24414 136.56055 L 290.24414 138.2168 L 286.51367 144.05078 L 283.57227 144.05078 L 287.47461 138.26367 L 287.47461 138.2207 L 282.88867 138.2207 L 282.88867 136.56055 z M 164.26562 137.8125 C 163.61628 137.8125 163.14648 138.17547 163.14648 138.64258 C 163.14648 139.1045 163.61628 139.4668 164.26562 139.4668 C 164.91497 139.4668 165.39258 139.1045 165.39258 138.64258 C 165.39258 138.17547 164.91497 137.8125 164.26562 137.8125 z M 241.90039 137.8125 C 241.25104 137.8125 240.78125 138.17547 240.78125 138.64258 C 240.78125 139.1045 241.25104 139.4668 241.90039 139.4668 C 242.54974 139.4668 243.02734 139.1045 243.02734 138.64258 C 243.02734 138.17547 242.54974 137.8125 241.90039 137.8125 z M 255.08203 137.8125 C 254.43268 137.8125 253.96094 138.17547 253.96094 138.64258 C 253.96094 139.1045 254.43268 139.4668 255.08203 139.4668 C 255.73138 139.4668 256.20703 139.1045 256.20703 138.64258 C 256.20703 138.17547 255.73138 137.8125 255.08203 137.8125 z M 124.69727 137.93555 L 127.08789 137.93555 L 127.08789 140.0957 L 129.67383 140.0957 L 129.67383 141.90234 L 127.08789 141.90234 L 127.08789 144.06055 L 124.69727 144.06055 L 124.69727 141.90234 L 122.11328 141.90234 L 122.11328 140.0957 L 124.69727 140.0957 L 124.69727 137.93555 z M 184.04102 138.00391 C 183.06699 139.17687 182.43107 139.9714 181.64258 141.2793 L 181.64258 141.3418 L 184.09375 141.3418 L 184.09375 138.00391 L 184.04102 138.00391 z M 229.28906 138.00391 C 228.31504 139.17687 227.67912 139.9714 226.89062 141.2793 L 226.89062 141.3418 L 229.3418 141.3418 L 229.3418 138.00391 L 229.28906 138.00391 z M 274.85742 138.00391 C 273.8834 139.17687 273.24553 139.9714 272.45703 141.2793 L 272.45703 141.3418 L 274.91016 141.3418 L 274.91016 138.00391 L 274.85742 138.00391 z M 196.5332 138.03906 C 195.75133 138.03906 195.18164 138.74046 195.18164 140.28711 C 195.18164 141.82856 195.75133 142.56641 196.5332 142.56641 C 197.31507 142.56641 197.87695 141.82856 197.87695 140.28711 C 197.87695 138.74046 197.31507 138.03906 196.5332 138.03906 z M 209.58008 138.03906 C 208.79821 138.03906 208.22852 138.74046 208.22852 140.28711 C 208.22852 141.82856 208.79821 142.56641 209.58008 142.56641 C 210.36195 142.56641 210.92578 141.82856 210.92578 140.28711 C 210.92578 138.74046 210.36195 138.03906 209.58008 138.03906 z M 164.26562 140.92578 C 163.47713 140.92578 162.94727 141.32998 162.94727 141.85938 C 162.94727 142.38876 163.47713 142.79492 164.26562 142.79492 C 165.05412 142.79492 165.58398 142.38876 165.58398 141.85938 C 165.58398 141.32999 165.05412 140.92578 164.26562 140.92578 z M 241.90039 140.92578 C 241.1119 140.92578 240.58203 141.32998 240.58203 141.85938 C 240.58203 142.38876 241.1119 142.79492 241.90039 142.79492 C 242.68889 142.79492 243.21875 142.38876 243.21875 141.85938 C 243.21875 141.32999 242.68889 140.92578 241.90039 140.92578 z M 255.08203 140.92578 C 254.29354 140.92578 253.76367 141.32998 253.76367 141.85938 C 253.76367 142.38876 254.29354 142.79492 255.08203 142.79492 C 255.87053 142.79492 256.40039 142.38876 256.40039 141.85938 C 256.40039 141.32999 255.87053 140.92578 255.08203 140.92578 z M 68.214844 152.50977 C 72.808645 152.50977 75.380371 154.15946 75.404297 156.7832 L 70.773438 156.7832 C 70.737548 155.93986 69.674332 155.44336 68.310547 155.44336 C 66.982651 155.44336 66.144531 155.87415 66.144531 156.54883 C 66.144531 157.19539 66.849347 157.53292 68.488281 157.75781 L 70.857422 158.07617 C 74.207069 158.53533 75.775391 159.78191 75.775391 161.97461 C 75.775391 164.73891 72.820364 166.5 68.226562 166.5 C 63.596872 166.5 60.832276 164.98191 60.820312 162.2832 L 65.617188 162.2832 C 65.760744 163.05159 66.958481 163.55859 68.322266 163.55859 C 69.84157 163.55859 70.773438 163.07976 70.773438 162.42383 C 70.773437 161.796 70.139425 161.52409 68.285156 161.26172 L 66 160.94336 C 62.829798 160.51232 61.107422 159.08844 61.107422 156.9707 C 61.107422 154.23451 64.099563 152.50977 68.214844 152.50977 z M 91.101562 152.50977 C 95.695364 152.50977 98.269043 154.15946 98.292969 156.7832 L 93.662109 156.7832 C 93.62622 155.93986 92.56105 155.44336 91.197266 155.44336 C 89.86937 155.44336 89.033203 155.87415 89.033203 156.54883 C 89.033203 157.19539 89.738019 157.53292 91.376953 157.75781 L 93.746094 158.07617 C 97.095741 158.53533 98.662109 159.78191 98.662109 161.97461 C 98.662109 164.73891 95.707083 166.5 91.113281 166.5 C 86.483591 166.5 83.720947 164.98191 83.708984 162.2832 L 88.505859 162.2832 C 88.649416 163.05159 89.8452 163.55859 91.208984 163.55859 C 92.728289 163.55859 93.662109 163.07976 93.662109 162.42383 C 93.662109 161.796 93.028097 161.52409 91.173828 161.26172 L 88.888672 160.94336 C 85.71847 160.51232 83.996094 159.08844 83.996094 156.9707 C 83.996094 154.23451 86.986282 152.50977 91.101562 152.50977 z M 163.63477 152.50977 C 168.97027 152.50977 172.33008 155.18996 172.33008 159.50977 C 172.33008 163.82957 168.97027 166.5 163.63477 166.5 C 158.28729 166.5 154.9375 163.82957 154.9375 159.50977 C 154.9375 155.18996 158.29926 152.50977 163.63477 152.50977 z M 187.74219 152.50977 C 192.33599 152.50977 194.90771 154.15946 194.93164 156.7832 L 190.30273 156.7832 C 190.26685 155.93986 189.20168 155.44336 187.83789 155.44336 C 186.50999 155.44336 185.67188 155.87415 185.67188 156.54883 C 185.67187 157.19539 186.37864 157.53292 188.01758 157.75781 L 190.38672 158.07617 C 193.73637 158.53533 195.30273 159.78191 195.30273 161.97461 C 195.30273 164.73891 192.34771 166.5 187.75391 166.5 C 183.12422 166.5 180.36157 164.98191 180.34961 162.2832 L 185.14648 162.2832 C 185.29004 163.05159 186.48582 163.55859 187.84961 163.55859 C 189.36891 163.55859 190.30273 163.07976 190.30273 162.42383 C 190.30273 161.796 189.66872 161.52409 187.81445 161.26172 L 185.5293 160.94336 C 182.3591 160.51232 180.63672 159.08844 180.63672 156.9707 C 180.63672 154.23451 183.62691 152.50977 187.74219 152.50977 z M 22.904297 152.74414 L 27.976562 152.74414 L 27.976562 161.57031 C 27.976563 164.74692 25.464647 166.5 21.265625 166.5 C 17.078566 166.5 14.470703 164.60631 14.470703 161.47656 L 19.328125 161.47656 C 19.328125 162.53543 20.032946 163.17383 21.193359 163.17383 C 22.305921 163.17383 22.904297 162.61121 22.904297 161.54297 L 22.904297 152.74414 z M 37.167969 152.74414 L 42.240234 152.74414 L 42.240234 161.00977 C 42.240234 162.43408 43.136456 163.21094 44.775391 163.21094 C 46.414325 163.21094 47.3125 162.43408 47.3125 161.00977 L 47.3125 152.74414 L 52.384766 152.74414 L 52.384766 161.44922 C 52.384766 164.53212 49.333303 166.5 44.775391 166.5 C 40.217478 166.5 37.167969 164.53212 37.167969 161.44922 L 37.167969 152.74414 z M 107.07617 152.74414 L 112.14844 152.74414 L 112.14844 166.26562 L 107.07617 166.26562 L 107.07617 152.74414 z M 132.27539 152.74414 L 137.34766 152.74414 L 137.34766 158.47852 L 137.44336 158.47852 L 142.7793 152.74414 L 148.10352 152.74414 L 142.41992 158.75 L 148.36523 166.26562 L 142.46875 166.26562 L 138.69922 161.29883 L 137.34766 162.72461 L 137.34766 166.26562 L 132.27539 166.26562 L 132.27539 152.74414 z M 203.7168 152.74414 L 208.78906 152.74414 L 208.78906 158.47852 L 208.88477 158.47852 L 214.21875 152.74414 L 219.54297 152.74414 L 213.86133 158.75 L 219.80664 166.26562 L 213.9082 166.26562 L 210.14062 161.29883 L 208.78906 162.72461 L 208.78906 166.26562 L 203.7168 166.26562 L 203.7168 152.74414 z M 227.51367 152.74414 L 232.58594 152.74414 L 232.58594 166.26562 L 227.51367 166.26562 L 227.51367 152.74414 z M 241.5 152.74414 L 245.4375 152.74414 L 252.09961 159.75391 L 252.19531 159.75391 L 252.19531 152.74414 L 256.98047 152.74414 L 256.98047 166.26562 L 253.09375 166.26562 L 246.38086 159.14453 L 246.28516 159.14453 L 246.28516 166.26562 L 241.5 166.26562 L 241.5 152.74414 z M 265.91992 152.74414 L 278.09961 152.74414 L 278.09961 155.90234 L 270.99219 155.90234 L 270.99219 158.08594 L 277.65625 158.08594 L 277.65625 160.93359 L 270.99219 160.93359 L 270.99219 163.10742 L 278.09961 163.10742 L 278.09961 166.26562 L 265.91992 166.26562 L 265.91992 152.74414 z M 286.99023 152.74414 L 290.92578 152.74414 L 297.58984 159.75391 L 297.68555 159.75391 L 297.68555 152.74414 L 302.4707 152.74414 L 302.4707 166.26562 L 298.58203 166.26562 L 291.87109 159.14453 L 291.77539 159.14453 L 291.77539 166.26562 L 286.99023 166.26562 L 286.99023 152.74414 z M 163.63477 155.67773 C 161.51731 155.67773 160.10547 157.16714 160.10547 159.50977 C 160.10547 161.84302 161.50535 163.33203 163.63477 163.33203 C 165.76418 163.33203 167.16211 161.84302 167.16211 159.50977 C 167.16211 157.16714 165.75222 155.67773 163.63477 155.67773 z "
       id="rect4172"
       inkscape:export-xdpi="900"
       inkscape:export-ydpi="900" />
    <circle
       style="fill:#cccccc;fill-opacity:1;stroke:#000000;stroke-width:0;stroke-miterlimit:4;stroke-dasharray:none;stroke-opacity:1"
       id="path5427"
       cx="22.262894"
       cy="132.48512"
       r="3.6406462" />
    <rect
       style="fill:#ffffff;fill-opacity:1;stroke:#000000;stroke-width:0.04474537;stroke-miterlimit:4;stroke-dasharray:none;stroke-opacity:1"
       id="rect5579"
       width="140.04401"
       height="51.702682"
       x="-72.367729"
       y="0.8716535"
       transform="matrix(0.70710678,-0.70710678,0.70710678,0.70710678,0,0)" />
    <g
       id="g4635"
       transform="matrix(0.70710678,-0.70710678,0.70710678,0.70710678,-105.35614,-75.29018)">
      <rect
         transform="scale(-1,-1)"
         y="-180"
         x="-42.51968"
         height="30.826761"
         width="42.519676"
         id="rect4551"
         style="display:inline;fill:none;fill-opacity:1;stroke:#000000;stroke-width:0.17716534;stroke-miterlimit:4;stroke-dasharray:none;stroke-opacity:1" />
      <rect
         y="156.96851"
         x="15.944887"
         height="23.031488"
         width="3.5433002"
         id="rect4554"
         style="fill:#000000;fill-opacity:1;stroke:#000000;stroke-width:0;stroke-miterlimit:4;stroke-dasharray:none;stroke-opacity:1" />
      <rect
         y="156.97026"
         x="23.031502"
         height="23.031488"
         width="3.5433002"
         id="rect4554-6"
         style="display:inline;fill:#000000;fill-opacity:1;stroke:#000000;stroke-width:0;stroke-miterlimit:4;stroke-dasharray:none;stroke-opacity:1" />
      <rect
         y="153.4252"
         x="31.003942"
         height="26.574793"
         width="5.3149476"
         id="rect4554-6-7"
         style="display:inline;fill:#000000;fill-opacity:1;stroke:#000000;stroke-width:0;stroke-miterlimit:4;stroke-dasharray:none;stroke-opacity:1" />
      <rect
         y="153.4252"
         x="6.2007923"
         height="26.574793"
         width="5.3149476"
         id="rect4554-6-7-3"
         style="display:inline;fill:#000000;fill-opacity:1;stroke:#000000;stroke-width:0;stroke-miterlimit:4;stroke-dasharray:none;stroke-opacity:1" />
    </g>
    <text
       xml:space="preserve"
       style="font-style:normal;font-weight:normal;font-size:40px;line-height:125%;font-family:sans-serif;letter-spacing:0px;word-spacing:0px;fill:#000000;fill-opacity:1;stroke:none;stroke-width:1px;stroke-linecap:butt;stroke-linejoin:miter;stroke-opacity:1"
       x="240.88235"
       y="143.33542"
       id="text5959"
       sodipodi:linespacing="125%"><tspan
         sodipodi:role="line"
         id="tspan5961"
         x="240.88235"
         y="143.33542"></tspan></text>
  </g>
  <g
     inkscape:groupmode="layer"
     id="layer4"
     inkscape:label="Black (silk)"
     style="display:inline" />
</svg>
