<?xml version="1.0" encoding="UTF-8" standalone="no"?>
<!-- Created with Inkscape (http://www.inkscape.org/) -->

<svg
   xmlns:dc="http://purl.org/dc/elements/1.1/"
   xmlns:cc="http://creativecommons.org/ns#"
   xmlns:rdf="http://www.w3.org/1999/02/22-rdf-syntax-ns#"
   xmlns:svg="http://www.w3.org/2000/svg"
   xmlns="http://www.w3.org/2000/svg"
   xmlns:sodipodi="http://sodipodi.sourceforge.net/DTD/sodipodi-0.dtd"
   xmlns:inkscape="http://www.inkscape.org/namespaces/inkscape"
   width="3.5in"
   height="2in"
   viewBox="0 0 315 180"
   id="svg3336"
   version="1.1"
   inkscape:version="0.91 r13725"
   sodipodi:docname="pcb-card.svg"
   enable-background="new">
  <defs
     id="defs3338" />
  <sodipodi:namedview
     id="base"
     pagecolor="#ffffff"
     bordercolor="#666666"
     borderopacity="1.0"
     inkscape:pageopacity="0.0"
     inkscape:pageshadow="2"
     inkscape:zoom="1.3126984"
     inkscape:cx="157.5"
     inkscape:cy="90"
     inkscape:document-units="px"
     inkscape:current-layer="layer3"
     showgrid="false"
     units="in"
     inkscape:window-width="1440"
     inkscape:window-height="823"
     inkscape:window-x="0"
     inkscape:window-y="1"
     inkscape:window-maximized="1" />
  <metadata
     id="metadata3341">
    <rdf:RDF>
      <cc:Work
         rdf:about="">
        <dc:format>image/svg+xml</dc:format>
        <dc:type
           rdf:resource="http://purl.org/dc/dcmitype/StillImage" />
        <dc:title></dc:title>
      </cc:Work>
    </rdf:RDF>
  </metadata>
  <g
     inkscape:label="Fiberglass"
     inkscape:groupmode="layer"
     id="layer1"
     transform="translate(0,-872.36212)"
     style="display:inline">
    <rect
       style="fill:#918a6f;fill-opacity:1;stroke:#000000;stroke-width:0;stroke-miterlimit:4;stroke-dasharray:none;stroke-opacity:1"
       id="rect4174"
       width="315"
       height="179.99998"
       x="5.0157064e-06"
       y="872.36212" />
  </g>
  <g
     inkscape:groupmode="layer"
     id="layer2"
     inkscape:label="Gold (copper)"
     style="display:inline">
    <rect
       style="fill:#ffbe21;fill-opacity:1;fill-rule:evenodd;stroke:#000000;stroke-width:0;stroke-linecap:butt;stroke-linejoin:miter;stroke-miterlimit:4;stroke-dasharray:none;stroke-opacity:1"
       id="rect3366"
       width="315"
       height="179.99998"
       x="5.00956e-06"
       y="4.999295e-06" />
  </g>
  <g
     inkscape:groupmode="layer"
     id="layer3"
     inkscape:label="White (mask)"
     style="display:inline">
    <rect
       style="fill:#ffffff;fill-opacity:1;stroke:#000000;stroke-width:0;stroke-miterlimit:4;stroke-dasharray:none;stroke-opacity:1"
       id="rect4172"
       width="315"
       height="179.99998"
       x="5.0292124e-06"
       y="5.0118156e-06"
       clip-path="none" />
    <path
       style="fill:#ffbe21;fill-opacity:1"
       d="m 266.31897,104.76469 c -1.86316,0.0918 -3.52573,-0.93798 -4.25125,-2.63346 C 261.94556,101.8458 258.96799,90.258454 249.89996,54.779892 238.71285,11.010444 237.89488,7.7851788 237.90781,7.4943707 c 0.0275,-0.6203327 0.0876,-0.9753192 0.23922,-1.4220053 0.3626,-1.06633 1.03375,-1.8592818 2.08536,-2.4637412 0.26512,-0.1523984 0.84059,-0.3084571 6.12116,-1.6600146 5.28056,-1.3515556 5.86024,-1.49114869 6.16597,-1.48486332 1.21265,0.0249226 2.18226,0.39792654 3.01256,1.15893682 0.6224,0.5704377 0.95877,1.1346144 1.24318,2.0850234 l 0.20397,0.6816729 0.8567,-0.9593022 c 1.85006,-2.0716068 3.66381,-3.71931049 5.74451,-5.218596 3.16361,-2.2795833 6.75489,-4.0655834 10.5467,-5.2449888 5.12523,-1.5941541 10.38167,-2.2417455 15.41526,-1.89914 2.22,0.1511003 3.53002,0.3382321 5.6788,0.8111867 4.11776,0.9063458 7.93511,2.4111395 11.78387,4.6451774 9.52022,5.5260848 15.88297,13.4277138 19.08782,23.7044155 0.4535,1.454164 1.2615,4.795466 1.49073,6.164481 1.10662,6.609332 0.70291,13.04606 -1.19809,19.102908 -2.37307,7.560809 -6.8373,14.535069 -12.41928,19.401993 -1.74978,1.525625 -2.70707,2.241329 -4.64929,3.475883 -2.56516,1.630516 -5.29375,2.940553 -8.29605,3.983055 -1.08132,0.375477 -4.4021,1.261251 -5.60396,1.494789 -2.4135,0.46898 -4.69381,0.691372 -7.1508,0.697426 -1.0102,0.0025 -3.56084,-0.160234 -4.60707,-0.293882 -2.62092,-0.334849 -5.11445,-0.935416 -7.81083,-1.881227 -0.84517,-0.296468 -1.5561,-0.542354 -1.57988,-0.546405 -0.0237,-0.0037 1.42528,5.755676 3.22006,12.799408 3.00853,11.807249 3.26212,12.831137 3.24932,13.118882 -0.0416,0.91771 -0.22581,1.593189 -0.61735,2.25405 -0.26909,0.454247 -0.77354,1.016457 -1.14296,1.273877 -0.7377,0.51406 -0.30262,0.38175 -6.55203,1.99238 -4.59771,1.18495 -5.81914,1.48477 -6.10644,1.49895 z m 27.6101,-49.84237 c 2.72069,-0.946833 4.6698,-2.037593 6.70467,-3.752066 3.36934,-2.838806 6.18686,-7.29084 7.41837,-11.721926 0.95099,-3.421778 1.03069,-6.697572 0.2593,-10.656859 -0.24578,-1.261463 -0.69168,-2.75452 -1.24509,-4.169075 -1.60468,-4.101751 -4.08818,-7.329835 -7.65998,-9.956567 -3.9625,-2.91406 -8.44642,-4.462072 -12.89169,-4.450688 -1.91535,0.0049 -3.2732,0.171331 -5.31624,0.651542 -4.31453,1.014141 -7.73938,2.873245 -10.56164,5.733127 -2.41046,2.442581 -4.45045,5.896811 -5.46524,9.254003 -1.17541,3.88855 -1.25133,7.748009 -0.24026,12.21057 0.73928,3.262884 2.14927,6.439091 3.9476,8.892594 2.266,3.09159 5.4258,5.597224 9.20643,7.300427 3.83887,1.729461 7.93767,2.266037 12.04896,1.57732 0.3836,-0.06423 0.78216,-0.130149 0.88569,-0.146408 0.4499,-0.07066 2.3453,-0.569769 2.90911,-0.765982 z M 28.485093,142.16453 c -0.36748,0.0671 -1.082595,0.17496 -1.589147,0.2397 -4.687617,0.59902 -9.174837,0.13217 -13.56202,-1.4108 -3.181899,-1.11908 -6.2143121,-2.75712 -9.2041578,-4.9718 -0.8532061,-0.63201 -1.1393911,-0.90357 -1.4668345,-1.3919 -0.7988598,-1.19133 -0.9788274,-2.59279 -0.5071617,-3.9494 0.2145069,-0.61697 4.7759448,-9.4273 5.1673772,-9.98069 0.9368135,-1.32443 2.4793059,-2.01626 4.1295888,-1.85215 0.822412,0.0818 1.416703,0.34463 2.621131,1.15935 3.901107,2.63892 7.499539,3.85097 10.482966,3.53096 0.596576,-0.0639 1.813434,-0.3739 2.363637,-0.60194 1.627348,-0.67454 2.86126,-1.75369 3.781739,-3.30746 1.009695,-1.70435 1.214327,-3.32154 0.631446,-4.99032 -0.46921,-1.34333 -1.084311,-2.07557 -2.39988,-2.85688 -2.030927,-1.20618 -5.32311,-2.26078 -11.428184,-3.66086 -2.827458,-0.64839 -4.220053,-1.04309 -6.438818,-1.82488 -3.6442369,-1.28404 -6.9509511,-3.03464 -9.3817168,-4.96677 -1.10633824,-0.8794 -2.5097748,-2.321294 -3.4214986,-3.515296 -0.4495086,-0.588675 -1.498744,-2.22149 -1.8678895,-2.90681 -0.5919091,-1.098888 -1.2032517,-2.478556 -1.6922455,-3.818996 -0.3296718,-0.90372 -1.1991572,-4.292302 -1.3134615,-5.11885 -0.4403452,-3.184235 -0.2634427,-6.260553 0.5211566,-9.062672 0.5728697,-2.045962 1.435003,-4.006134 2.6181184,-5.952672 1.2898124,-2.122069 2.71771453,-3.816215 4.5754553,-5.428588 2.2404768,-1.944546 4.7460174,-3.39643 8.0528432,-4.666386 1.1166344,-0.428829 4.8799024,-1.394496 5.8389024,-1.49826 3.107511,-0.336304 5.810361,-0.191171 8.922594,0.479324 1.607228,0.346214 2.624245,0.632669 4.250847,1.197294 2.669888,0.926775 5.088958,2.017771 8.001133,3.60848 1.529894,0.835691 2.010829,1.214432 2.480661,1.953606 0.865309,1.361355 0.989247,2.947542 0.338444,4.331493 -0.267084,0.567964 -4.924346,8.721812 -5.221468,9.141649 -0.382017,0.539804 -0.712087,0.872451 -1.171033,1.180199 -1.15727,0.776007 -2.593704,0.976877 -3.854931,0.539087 -0.246296,-0.08553 -0.869931,-0.378375 -1.385861,-0.65084 -2.88064,-1.521273 -5.619446,-2.492912 -7.934012,-2.814748 -2.430655,-0.337974 -4.527419,0.120484 -5.92031,1.294601 -0.764329,0.644268 -1.394096,1.650085 -1.577574,2.519598 -0.142606,0.675809 -0.125752,1.051078 0.08355,1.860929 0.163899,0.634159 0.209556,0.748623 0.435328,1.091483 0.302689,0.459672 0.515189,0.685598 1.033183,1.098455 1.399185,1.115201 5.306518,2.508907 10.878407,3.880214 3.622992,0.891668 4.783384,1.218326 6.813135,1.917973 3.046265,1.05003 5.327444,2.0856 7.725479,3.507138 1.69295,1.003554 2.894096,1.872402 4.144748,2.998122 2.571984,2.315023 4.327942,4.888393 5.797257,8.495823 0.31226,0.76664 1.250844,4.23133 1.437701,5.30711 0.373254,2.14893 0.471112,4.24983 0.300925,6.46038 -0.168349,2.18659 -0.513968,3.85186 -1.236756,5.95905 -0.636222,1.85478 -1.241062,3.15605 -2.289639,4.92605 -1.046856,1.76708 -1.895299,2.92007 -3.220027,4.37586 -1.483145,1.6299 -2.86947,2.81886 -4.610772,3.95434 -1.851893,1.20755 -3.364855,1.9779 -5.395326,2.74705 -0.86618,0.32812 -4.274029,1.25059 -5.337032,1.44468 z M 90.418592,126.3086 c -0.360206,0.0231 -0.953808,-0.0165 -1.251502,-0.0806 -0.896317,-0.19449 -1.843042,-0.75592 -2.461462,-1.45965 -0.217056,-0.24697 -47.00684,-63.490657 -47.281155,-63.907808 -0.736349,-1.119786 -0.922918,-2.54559 -0.496991,-3.798171 0.362598,-1.066327 1.033763,-1.85928 2.08535,-2.463741 0.265376,-0.15254 0.852781,-0.31158 6.304933,-1.707052 6.543136,-1.674707 6.124723,-1.585877 7.015651,-1.489404 0.93503,0.101262 2.080593,0.724565 2.766679,1.505386 0.121011,0.137703 23.400735,32.371812 25.53577,35.357931 l 0.365946,0.511813 3.136607,-22.050189 c 1.72514,-12.127615 3.184195,-22.208637 3.242327,-22.402268 0.389521,-1.297212 1.235053,-2.25605 2.474923,-2.806609 0.528544,-0.234692 3.81723,-1.020755 4.214729,-1.007405 1.441201,0.04842 2.589346,0.595782 3.442436,1.641148 0.202962,0.248721 7.970287,10.686124 22.433197,30.144809 2.27205,3.056883 4.14328,5.555126 4.15828,5.551651 0.0151,-0.0033 1.29906,-9.779515 2.85351,-21.72454 1.5544,-11.945016 2.85969,-21.906105 2.90066,-22.13574 0.2505,-1.404153 1.03189,-2.499367 2.3055,-3.231453 0.26543,-0.152579 0.85626,-0.312472 6.35744,-1.720492 5.50119,-1.408019 6.09616,-1.551634 6.40227,-1.545341 1.21269,0.02492 2.18227,0.397926 3.01259,1.158933 0.57232,0.52458 0.9419,1.113519 1.19631,1.906499 0.19966,0.622261 0.25592,1.181747 0.18803,1.870249 -0.10858,1.101297 -11.2262,78.690294 -11.31993,79.000604 -0.38408,1.27163 -1.26669,2.27944 -2.47713,2.82848 -0.4647,0.21077 -3.59272,0.99582 -4.08633,1.02554 -1.29157,0.0778 -2.45996,-0.35574 -3.37448,-1.25209 -0.13301,-0.13035 -2.52356,-3.2902 -5.31227,-7.02184 -2.78873,-3.73163 -8.67093,-11.6036 -13.07159,-17.493253 -4.40065,-5.889671 -8.08589,-10.820353 -8.1894,-10.957076 l -0.18826,-0.248563 -0.20302,1.411792 c -0.11169,0.776476 -1.52148,10.580844 -3.132932,21.78748 -1.611422,11.20664 -2.955063,20.48839 -2.985823,20.62611 -0.229161,1.02552 -0.931,2.12032 -1.705045,2.65969 -0.673864,0.46956 -0.69135,0.47606 -2.693234,1.00223 -1.040772,0.27355 -2.010726,0.50365 -2.162599,0.51302 z M 204.81033,97.032905 c -2.59939,0.484987 -5.67621,0.735569 -8.17865,0.666067 -6.04718,-0.167956 -11.42615,-1.587041 -17.20357,-4.538696 -0.92363,-0.471862 -3.08639,-1.742469 -4.05322,-2.381209 -8.37086,-5.530283 -14.07645,-13.064363 -17.03578,-22.495214 -0.40186,-1.280681 -1.29005,-4.885416 -1.47182,-5.973506 -1.12124,-6.71177 -0.73038,-13.074471 1.17328,-19.099148 1.42079,-4.496523 3.57642,-8.765283 6.41299,-12.699577 1.12869,-1.56547 2.83587,-3.575219 4.2043,-4.9495 2.77667,-2.788479 6.28337,-5.319442 9.92681,-7.164657 3.16211,-1.60144 6.78309,-2.865763 10.53292,-3.67773 2.6641,-0.576879 5.05923,-0.847848 7.71718,-0.873071 1.2577,-0.01195 4.05818,0.17832 5.3238,0.36167 2.38837,0.346018 5.30855,1.109722 7.55529,1.975922 l 0.4966,0.191455 -0.14343,-0.705118 c -0.2019,-0.992234 -0.17721,-1.641225 0.0926,-2.434894 0.3626,-1.06633 1.03376,-1.859282 2.08537,-2.463742 0.26505,-0.152359 0.83707,-0.307564 6.06862,-1.646574 5.23156,-1.3390089 5.80782,-1.4777074 6.11349,-1.4714236 1.21267,0.024927 2.18226,0.3979279 3.01255,1.1589345 0.36237,0.3321344 0.6031,0.6420368 0.90032,1.1591438 0.15627,0.2718613 0.80417,2.7772973 9.12574,35.2899623 8.32159,32.512668 8.95704,35.021283 8.9506,35.334797 -0.0251,1.212673 -0.39794,2.18226 -1.15895,3.012561 -0.33214,0.362371 -0.64205,0.60308 -1.15914,0.900315 -0.26505,0.152358 -0.83708,0.307568 -6.06864,1.64658 -5.23154,1.338999 -5.80781,1.477704 -6.11348,1.471413 -1.21267,-0.02495 -2.18225,-0.397918 -3.01257,-1.158935 -0.6099,-0.559001 -0.95513,-1.130325 -1.23064,-2.036658 l -0.19245,-0.633074 -0.72079,0.816276 c -2.60838,2.953967 -5.10405,5.104113 -8.25668,7.113512 -2.2358,1.425018 -4.46936,2.534149 -7.04887,3.50025 -0.83559,0.312953 -1.39142,0.477029 -3.45927,1.021112 -1.35499,0.356546 -2.78806,0.708803 -3.18455,0.782749 z m 1.38351,-19.73294 c 3.96662,-1.523111 6.94652,-3.766169 9.47604,-7.132906 3.27199,-4.354982 4.82849,-9.194869 4.62573,-14.383558 -0.12269,-3.138028 -0.91695,-6.505028 -2.27184,-9.629617 -1.65,-3.805207 -4.34607,-7.052568 -7.81517,-9.413309 -4.02191,-2.736913 -8.30118,-4.038374 -12.82375,-3.900083 -1.71594,0.05247 -2.90716,0.23618 -5.00251,0.771491 -2.26947,0.579808 -3.45571,1.030599 -5.2024,1.977007 -3.86482,2.094091 -6.86534,5.377762 -9.03759,9.890417 -1.78226,3.702482 -2.55677,7.753418 -2.22709,11.647911 0.14783,1.746573 0.52517,3.735565 0.9825,5.179458 1.00503,3.173202 2.09424,5.271552 3.97178,7.651645 3.27943,4.157201 8.91498,7.58555 13.91662,8.466108 2.49964,0.440059 4.6458,0.437426 7.35716,-0.009 0.78982,-0.130058 3.24486,-0.806194 4.05052,-1.115548 z"
       id="path5567"
       inkscape:connector-curvature="0" />
    <circle
       style="fill:#cccccc;fill-opacity:1;stroke:#000000;stroke-width:0;stroke-miterlimit:4;stroke-dasharray:none;stroke-opacity:1"
       id="path5427"
       cx="22.262894"
       cy="132.48512"
       r="3.6406462" />
    <rect
       style="fill:#ffffff;fill-opacity:1;stroke:#000000;stroke-width:0.04474537;stroke-miterlimit:4;stroke-dasharray:none;stroke-opacity:1"
       id="rect5579"
       width="140.04401"
       height="51.702682"
       x="-72.367729"
       y="0.8716535"
       transform="matrix(0.70710678,-0.70710678,0.70710678,0.70710678,0,0)" />
    <g
       id="g4635"
       transform="matrix(0.70710678,-0.70710678,0.70710678,0.70710678,-105.35614,-75.29018)">
      <rect
         transform="scale(-1,-1)"
         y="-180"
         x="-42.51968"
         height="30.826761"
         width="42.519676"
         id="rect4551"
         style="display:inline;fill:none;fill-opacity:1;stroke:#000000;stroke-width:0.17716534;stroke-miterlimit:4;stroke-dasharray:none;stroke-opacity:1" />
      <rect
         y="156.96851"
         x="15.944887"
         height="23.031488"
         width="3.5433002"
         id="rect4554"
         style="fill:#000000;fill-opacity:1;stroke:#000000;stroke-width:0;stroke-miterlimit:4;stroke-dasharray:none;stroke-opacity:1" />
      <rect
         y="156.97026"
         x="23.031502"
         height="23.031488"
         width="3.5433002"
         id="rect4554-6"
         style="display:inline;fill:#000000;fill-opacity:1;stroke:#000000;stroke-width:0;stroke-miterlimit:4;stroke-dasharray:none;stroke-opacity:1" />
      <rect
         y="153.4252"
         x="31.003942"
         height="26.574793"
         width="5.3149476"
         id="rect4554-6-7"
         style="display:inline;fill:#000000;fill-opacity:1;stroke:#000000;stroke-width:0;stroke-miterlimit:4;stroke-dasharray:none;stroke-opacity:1" />
      <rect
         y="153.4252"
         x="6.2007923"
         height="26.574793"
         width="5.3149476"
         id="rect4554-6-7-3"
         style="display:inline;fill:#000000;fill-opacity:1;stroke:#000000;stroke-width:0;stroke-miterlimit:4;stroke-dasharray:none;stroke-opacity:1" />
    </g>
    <text
       xml:space="preserve"
       style="font-style:normal;font-variant:normal;font-weight:600;font-stretch:normal;font-size:18.78123856px;line-height:125%;font-family:'System Font';-inkscape-font-specification:'System Font, Semi-Bold';text-align:start;letter-spacing:0px;word-spacing:0px;writing-mode:lr-tb;text-anchor:start;fill:#ffbe21;fill-opacity:1;stroke:none;stroke-width:1px;stroke-linecap:butt;stroke-linejoin:miter;stroke-opacity:1"
       x="153.36107"
       y="127.30367"
       id="text5722"
       sodipodi:linespacing="125%"><tspan
         sodipodi:role="line"
         id="tspan5724"
         x="153.36107"
         y="127.30367">JUSSI KOSKINEN</tspan></text>
    <text
       xml:space="preserve"
       style="font-style:normal;font-variant:normal;font-weight:600;font-stretch:normal;font-size:14.24182796px;line-height:125%;font-family:'System Font';-inkscape-font-specification:'System Font, Semi-Bold';text-align:start;letter-spacing:0px;word-spacing:0px;writing-mode:lr-tb;text-anchor:start;display:inline;fill:#ffbe21;fill-opacity:1;stroke:none;stroke-width:1px;stroke-linecap:butt;stroke-linejoin:miter;stroke-opacity:1"
       x="154.15491"
       y="144.94505"
       id="text5722-4"
       sodipodi:linespacing="125%"><tspan
         sodipodi:role="line"
         id="tspan5724-7"
         x="154.15491"
         y="144.94505">jussi@swap.com</tspan></text>
    <text
       xml:space="preserve"
       style="font-style:normal;font-variant:normal;font-weight:600;font-stretch:normal;font-size:14.24182796px;line-height:125%;font-family:'System Font';-inkscape-font-specification:'System Font, Semi-Bold';text-align:start;letter-spacing:0px;word-spacing:0px;writing-mode:lr-tb;text-anchor:start;display:inline;fill:#ffbe21;fill-opacity:1;stroke:none;stroke-width:1px;stroke-linecap:butt;stroke-linejoin:miter;stroke-opacity:1"
       x="152.85451"
       y="164.65956"
       id="text5722-4-3"
       sodipodi:linespacing="125%"><tspan
         sodipodi:role="line"
         id="tspan5724-7-0"
         x="152.85451"
         y="164.65956">+358 400 488 472</tspan></text>
  </g>
  <g
     inkscape:groupmode="layer"
     id="layer4"
     inkscape:label="Black (silk)"
     style="display:inline" />
</svg>
